<?xml version="1.0" encoding="utf-8"?>
<!-- Generator: Adobe Illustrator 25.4.1, SVG Export Plug-In . SVG Version: 6.00 Build 0)  -->
<svg version="1.1" id="Layer_1" xmlns="http://www.w3.org/2000/svg" xmlns:xlink="http://www.w3.org/1999/xlink" x="0px" y="0px"
	 viewBox="0 0 250 250" style="enable-background:new 0 0 250 250;" xml:space="preserve">
<style type="text/css">
	.st0{fill:#8FB436;}
	.st1{fill:#FFFFFF;}
</style>
<g>
	<g>
		<path class="st0" d="M211.42,228.86H38.35c-9.54,0-17.35-7.81-17.35-17.35V38.44c0-9.54,7.8-17.35,17.35-17.35h173.07
			c9.54,0,17.35,7.81,17.35,17.35v173.07C228.77,221.06,220.96,228.86,211.42,228.86"/>
	</g>
	<rect x="45.8" y="175.05" class="st1" width="6.43" height="34.39"/>
	<polygon class="st1" points="58.85,175.05 66.18,175.05 80.55,200.06 80.65,200.06 80.65,175.05 87.08,175.05 87.08,209.44 
		79.89,209.44 65.38,184.44 65.29,184.44 65.29,209.44 58.85,209.44 	"/>
	<g>
		<path class="st1" d="M97.64,199.59c0.33,3.44,2.63,4.6,4.6,4.6c2.54,0,4.79-1.72,4.79-4.32c0-3.53-2.3-4.18-6.62-5.81
			c-2.68-1.02-8.27-2.65-8.27-9.9c0-5.48,4.32-9.8,10.19-9.8c4.04,0,9.96,2.79,10.29,9.8h-6.58c-0.28-3.07-2.16-3.86-3.9-3.86
			c-2.02,0-3.57,1.44-3.57,3.48c0,2.98,2.25,3.63,5.78,4.79c2.86,0.93,9.11,3.12,9.11,10.6c0,7.44-5.82,10.97-11.27,10.97
			c-4.46,0-10.94-2.97-11.32-10.55H97.64z"/>
	</g>
	<path class="st1" d="M128.03,194.57h7.99l-3.94-10.55h-0.09L128.03,194.57z M129.53,175.05h5.03l14.56,34.39h-7.09l-3.71-8.88
		h-12.45l-3.71,8.88h-7.09L129.53,175.05z"/>
	<g>
		<path class="st1" d="M158.88,203.49h1.36c3.48,0,5.73-0.23,8.45-1.67c3.43-1.86,5.21-5.81,5.21-9.48c0-3.35-1.46-6.51-3.71-8.46
			c-2.68-2.42-6.06-2.88-10.1-2.88h-1.22V203.49z M152.45,175.05h7.89c8.55,0,12.26,2.28,14.28,4c3.29,2.79,5.73,7.9,5.73,13.29
			c0,6.18-3.24,12.13-8.32,14.87c-3.19,1.77-7.66,2.23-11.56,2.23h-8.03V175.05z"/>
	</g>
	<polygon class="st1" points="185.23,175.05 203.92,175.05 203.92,181 191.67,181 191.67,189.41 203.41,189.41 203.41,195.36 
		191.67,195.36 191.67,203.49 203.92,203.49 203.92,209.44 185.23,209.44 	"/>
	<g>
		<path class="st1" d="M105.16,155.42H84.89V43.32h20.27V155.42z M60.86,152.2V46.55c0-1.78,1.45-3.23,3.23-3.23H81.4v112.11H64.09
			C62.31,155.42,60.86,153.98,60.86,152.2 M154.69,76.42c0.96,0,1.74-0.78,1.74-1.74V46.55c0-3.7-3.01-6.71-6.71-6.71H64.09
			c-3.7,0-6.71,3.01-6.71,6.71V152.2c0,3.7,3.01,6.71,6.71,6.71h85.63c3.7,0,6.71-3.01,6.71-6.71V123c0-0.96-0.78-1.74-1.74-1.74
			c-0.96,0-1.74,0.78-1.74,1.74v29.2c0,1.78-1.45,3.23-3.23,3.23h-17.05v-30.29c0-0.96-0.78-1.74-1.74-1.74
			c-0.96,0-1.74,0.78-1.74,1.74v30.29h-20.54V43.32h20.54v31.36c0,0.96,0.78,1.74,1.74,1.74c0.96,0,1.74-0.78,1.74-1.74V43.32h17.05
			c1.78,0,3.23,1.45,3.23,3.23v28.13C152.95,75.64,153.73,76.42,154.69,76.42"/>
		<path class="st1" d="M183.85,107.95c-2.41,3.22-6.27,5.19-10.29,5.26c-4.02,0.02-8.04,0.01-12.05,0c2.37-1.17,4.73-2.36,7.1-3.54
			c0.64-0.3,1.08-0.83,1.04-1.56c-0.03-0.67-0.46-1.11-1.04-1.39c-3.06-1.56-5.99-3.47-8.58-5.74c-5.1-4.44-8.9-10.32-10.83-16.8
			c9.26,7.28,18.54,14.64,27.8,21.93c0.56,0.44,1.36,0.46,1.91,0c1.19-1.05,2.2-2.32,3.45-3.3c1.38-1.03,3.02-1.35,4.71-1.28
			C186.08,103.64,185.28,106.09,183.85,107.95 M190.52,98.91c-0.52-0.53-1.15-0.44-1.82-0.46c-1.69,0.04-3.22-0.13-4.87,0.32
			c-1.4,0.35-2.66,1.05-3.79,1.94c1.22-6.07,2.43-12.15,3.65-18.22c1.72,3.23,2.51,6.83,2.57,10.47c0.02,0.47,0,0.94,0.29,1.34
			c0.38,0.55,1.07,0.79,1.71,0.59c0.66-0.2,1.1-0.82,1.08-1.52c0-4.72-1.12-9.53-3.65-13.55c-0.53-0.81-1.09-1.64-1.79-2.3
			c-0.56-0.51-1.46-0.5-2.02,0.01c-0.34,0.29-0.45,0.68-0.54,1.1c-1.55,7.77-3.11,15.53-4.66,23.3c-9.6-7.58-19.2-15.17-28.81-22.75
			c-0.56-0.47-1.3-0.55-1.92-0.14c-0.73,0.51-0.72,1.25-0.58,2.05c0.91,5.46,3.22,10.73,6.42,15.24c3.42,4.84,7.92,8.81,13.03,11.8
			c-3.41,1.71-6.82,3.42-10.23,5.11c-0.46,0.23-0.86,0.5-1.02,1.02c-0.27,0.81,0.19,1.72,1.02,1.95c0.59,0.12,1.21,0.06,1.81,0.07
			c4.91,0,9.82,0,14.73,0c1.59-0.01,3.12,0.05,4.7-0.2c5.2-0.79,9.85-4.22,12.13-8.96c0.98-2.1,1.89-4.23,2.84-6.35
			C191.08,100.13,191.04,99.42,190.52,98.91"/>
	</g>
</g>
</svg>
