<svg width="75" height="88" viewBox="0 0 75 88" fill="none" xmlns="http://www.w3.org/2000/svg">
<path d="M65.83 72.48H8.78C5.64 72.48 3.06 69.91 3.06 66.76V9.72C3.06 6.58 5.63 4 8.78 4H65.83C68.97 4 71.55 6.57 71.55 9.72V66.77C71.54 69.91 68.97 72.48 65.83 72.48Z" fill="#8FB436"/>
<path d="M13.35 54.75H11.23V66.09H13.35V54.75Z" fill="white"/>
<path d="M15.54 54.75H17.95L22.69 62.99H22.72V54.75H24.84V66.08H22.47L17.69 57.84H17.66V66.08H15.54V54.75Z" fill="white"/>
<path d="M28.32 62.83C28.43 63.96 29.19 64.35 29.84 64.35C30.68 64.35 31.42 63.78 31.42 62.93C31.42 61.77 30.66 61.55 29.24 61.02C28.36 60.68 26.52 60.15 26.52 57.76C26.52 55.95 27.94 54.53 29.88 54.53C31.21 54.53 33.16 55.45 33.27 57.76H31.1C31.01 56.75 30.39 56.49 29.81 56.49C29.14 56.49 28.63 56.96 28.63 57.64C28.63 58.62 29.37 58.84 30.53 59.22C31.47 59.53 33.53 60.25 33.53 62.71C33.53 65.16 31.61 66.33 29.81 66.33C28.34 66.33 26.2 65.35 26.08 62.85H28.32V62.83Z" fill="white"/>
<path d="M38.34 61.18H40.97L39.67 57.7H39.64L38.34 61.18ZM38.84 54.75H40.5L45.3 66.09H42.96L41.74 63.16H37.64L36.42 66.09H34.08L38.84 54.75Z" fill="white"/>
<path d="M48.51 64.12H48.96C50.11 64.12 50.85 64.04 51.75 63.57C52.88 62.96 53.47 61.66 53.47 60.45C53.47 59.35 52.99 58.31 52.25 57.66C51.37 56.86 50.25 56.71 48.92 56.71H48.52V64.12H48.51ZM46.39 54.75H48.99C51.81 54.75 53.03 55.5 53.7 56.07C54.78 56.99 55.59 58.67 55.59 60.45C55.59 62.49 54.52 64.45 52.85 65.35C51.8 65.93 50.33 66.09 49.04 66.09H46.39V54.75Z" fill="white"/>
<path d="M57.19 54.75H63.36V56.71H59.31V59.48H63.18V61.44H59.31V64.12H63.36V66.08H57.19V54.75Z" fill="white"/>
<path d="M4.96001 78.93L4.35001 79.12C4.29001 79.14 4.21001 79.15 4.16001 79.15C3.91001 79.15 3.70001 78.95 3.70001 78.71C3.70001 78.49 3.84001 78.32 4.05001 78.26L4.95001 77.97C5.15001 77.91 5.31001 77.88 5.46001 77.88H5.48001C5.78001 77.88 6.00001 78.11 6.00001 78.4V83.44C6.00001 83.73 5.77001 83.96 5.48001 83.96C5.20001 83.96 4.96001 83.73 4.96001 83.44V78.93Z" fill="white"/>
<path d="M16.51 80.94V80.92C16.51 79.75 15.91 78.78 14.99 78.78C14.07 78.78 13.48 79.72 13.48 80.9V80.92C13.48 82.09 14.08 83.06 15 83.06C15.92 83.06 16.51 82.1 16.51 80.94ZM12.4 80.94V80.92C12.4 79.22 13.44 77.84 15 77.84C16.56 77.84 17.59 79.2 17.59 80.9V80.92C17.59 82.62 16.55 84 14.99 84C13.42 84 12.4 82.64 12.4 80.94Z" fill="white"/>
<path d="M35.17 81.53L34.12 79.12L33.07 81.53H35.17ZM31.27 83.22L33.48 78.29C33.6 78.03 33.81 77.86 34.11 77.86H34.16C34.46 77.86 34.66 78.02 34.78 78.29L37 83.22C37.04 83.3 37.06 83.37 37.06 83.44C37.06 83.72 36.85 83.94 36.57 83.94C36.32 83.94 36.15 83.8 36.06 83.57L35.58 82.46H32.69L32.19 83.61C32.1 83.82 31.93 83.94 31.71 83.94C31.44 83.94 31.23 83.73 31.23 83.46C31.2 83.38 31.23 83.3 31.27 83.22Z" fill="white"/>
<path d="M44.68 77.55C44.51 77.55 44.37 77.41 44.37 77.27C44.37 77.22 44.39 77.13 44.4 77.07C44.58 76.58 44.82 76.3 45.27 76.3C45.74 76.3 46.19 76.64 46.5 76.64C46.7 76.64 46.79 76.55 46.89 76.37C46.95 76.28 47.04 76.2 47.17 76.2C47.34 76.2 47.48 76.34 47.48 76.48C47.48 76.53 47.46 76.62 47.45 76.68C47.27 77.17 47.03 77.45 46.58 77.45C46.11 77.45 45.66 77.11 45.35 77.11C45.15 77.11 45.06 77.2 44.96 77.38C44.91 77.47 44.82 77.55 44.68 77.55ZM43.3 78.44C43.3 78.15 43.53 77.91 43.83 77.91H43.94C44.2 77.91 44.34 78.04 44.48 78.22L47.46 82.07V78.41C47.46 78.13 47.69 77.9 47.97 77.9C48.26 77.9 48.49 78.13 48.49 78.41V83.41C48.49 83.7 48.27 83.93 47.98 83.93H47.94C47.69 83.93 47.54 83.8 47.4 83.62L44.34 79.65V83.43C44.34 83.71 44.11 83.94 43.83 83.94C43.54 83.94 43.31 83.71 43.31 83.43V78.44H43.3Z" fill="white"/>
<path d="M59.99 80.94V80.92C59.99 79.76 59.15 78.8 57.96 78.8C56.78 78.8 55.95 79.74 55.95 80.9V80.92C55.95 82.08 56.79 83.03 57.97 83.03C59.17 83.03 59.99 82.09 59.99 80.94ZM54.86 80.94V80.92C54.86 79.24 56.15 77.84 57.98 77.84C59.81 77.84 61.09 79.23 61.09 80.9V80.92C61.09 82.6 59.8 84 57.97 84C56.14 84 54.86 82.61 54.86 80.94Z" fill="white"/>
<path d="M67.27 83.23C67.15 83.15 67.07 83 67.07 82.83C67.07 82.56 67.29 82.35 67.56 82.35C67.7 82.35 67.8 82.39 67.87 82.44C68.36 82.83 68.89 83.05 69.54 83.05C70.19 83.05 70.59 82.74 70.59 82.3V82.28C70.59 81.85 70.35 81.63 69.25 81.37C67.98 81.06 67.27 80.69 67.27 79.59V79.57C67.27 78.55 68.12 77.84 69.3 77.84C70.05 77.84 70.65 78.04 71.19 78.39C71.31 78.46 71.42 78.6 71.42 78.81C71.42 79.08 71.2 79.29 70.93 79.29C70.83 79.29 70.74 79.26 70.66 79.21C70.2 78.91 69.76 78.76 69.29 78.76C68.68 78.76 68.32 79.07 68.32 79.47V79.49C68.32 79.95 68.59 80.15 69.74 80.43C71 80.74 71.65 81.19 71.65 82.17V82.19C71.65 83.3 70.77 83.97 69.52 83.97C68.7 83.98 67.94 83.73 67.27 83.23Z" fill="white"/>
<path d="M30.8 48.28H24.12V11.32H30.8V48.28ZM16.2 47.21V12.39C16.2 11.8 16.68 11.33 17.26 11.33H22.97V48.28H17.26C16.68 48.28 16.2 47.8 16.2 47.21ZM47.13 22.24C47.45 22.24 47.7 21.98 47.7 21.67V12.4C47.7 11.18 46.71 10.19 45.49 10.19H17.26C16.04 10.19 15.05 11.18 15.05 12.4V47.22C15.05 48.44 16.04 49.43 17.26 49.43H45.48C46.7 49.43 47.69 48.44 47.69 47.22V37.6C47.69 37.28 47.43 37.03 47.12 37.03C46.8 37.03 46.55 37.29 46.55 37.6V47.22C46.55 47.81 46.07 48.28 45.49 48.28H39.87V38.3C39.87 37.98 39.61 37.73 39.3 37.73C38.98 37.73 38.73 37.99 38.73 38.3V48.28H31.96V11.32H38.73V21.66C38.73 21.98 38.99 22.23 39.3 22.23C39.62 22.23 39.87 21.97 39.87 21.66V11.32H45.49C46.08 11.32 46.55 11.8 46.55 12.38V21.65C46.55 21.98 46.81 22.24 47.13 22.24Z" fill="white"/>
<path d="M56.74 32.63C55.95 33.69 54.67 34.34 53.35 34.36C52.03 34.37 50.7 34.36 49.38 34.36C50.16 33.97 50.94 33.58 51.72 33.19C51.93 33.09 52.07 32.92 52.06 32.67C52.05 32.45 51.91 32.31 51.72 32.21C50.71 31.7 49.74 31.07 48.89 30.32C47.21 28.86 45.96 26.92 45.32 24.78C48.37 27.18 51.43 29.61 54.48 32.01C54.66 32.16 54.93 32.16 55.11 32.01C55.5 31.66 55.84 31.24 56.25 30.92C56.7 30.58 57.24 30.47 57.8 30.5C57.47 31.21 57.21 32.01 56.74 32.63ZM58.94 29.65C58.77 29.48 58.56 29.51 58.34 29.5C57.78 29.51 57.28 29.46 56.73 29.61C56.27 29.73 55.85 29.96 55.48 30.25C55.88 28.25 56.28 26.25 56.68 24.24C57.25 25.3 57.51 26.49 57.53 27.69C57.54 27.84 57.53 28 57.62 28.13C57.75 28.31 57.97 28.39 58.18 28.33C58.4 28.26 58.54 28.06 58.53 27.83C58.53 26.27 58.16 24.69 57.33 23.36C57.16 23.09 56.97 22.82 56.74 22.6C56.55 22.43 56.26 22.44 56.07 22.6C55.96 22.7 55.92 22.82 55.89 22.96C55.38 25.52 54.87 28.08 54.35 30.64C51.18 28.14 48.02 25.64 44.85 23.14C44.67 22.99 44.42 22.96 44.22 23.09C44 23.27 44 23.51 44.05 23.78C44.35 25.58 45.11 27.32 46.16 28.8C47.29 30.39 48.77 31.7 50.45 32.69C49.33 33.25 48.2 33.82 47.08 34.38C46.93 34.46 46.8 34.55 46.74 34.72C46.65 34.99 46.8 35.29 47.08 35.36C47.27 35.4 47.48 35.38 47.68 35.38C49.3 35.38 50.92 35.38 52.53 35.38C53.06 35.38 53.56 35.4 54.08 35.31C55.8 35.05 57.33 33.92 58.08 32.36C58.4 31.67 58.7 30.96 59.02 30.27C59.12 30.05 59.11 29.82 58.94 29.65Z" fill="white"/>
</svg>
