<svg width="114" height="97" viewBox="0 0 114 97" fill="none" xmlns="http://www.w3.org/2000/svg">
<path d="M95.69 75.85C89.77 83.76 80.27 88.61 70.4 88.77C60.52 88.81 50.64 88.79 40.76 88.78C46.6 85.91 52.4 82.97 58.23 80.07C59.79 79.32 60.88 78.04 60.78 76.22C60.69 74.57 59.64 73.5 58.23 72.8C50.7 68.97 43.49 64.27 37.14 58.67C24.6 47.76 15.26 33.28 10.51 17.36C33.28 35.28 56.1 53.37 78.86 71.29C80.23 72.38 82.21 72.43 83.56 71.3C86.49 68.72 88.98 65.59 92.05 63.19C95.44 60.65 99.47 59.87 103.64 60.05C101.17 65.26 99.2 71.27 95.69 75.85ZM112.11 53.61C110.83 52.31 109.29 52.53 107.62 52.49C103.47 52.58 99.7 52.18 95.64 53.27C92.19 54.14 89.11 55.84 86.33 58.04C89.34 43.11 92.3 28.16 95.3 13.23C99.53 21.17 101.47 30.02 101.62 38.99C101.68 40.14 101.62 41.29 102.32 42.27C103.25 43.62 104.95 44.21 106.53 43.73C108.16 43.23 109.23 41.72 109.17 40C109.17 28.4 106.42 16.56 100.18 6.67999C98.89 4.69999 97.51 2.64999 95.78 1.01999C94.4 -0.230014 92.2 -0.200014 90.82 1.04999C89.99 1.76999 89.72 2.71999 89.5 3.74999C85.68 22.85 81.86 41.95 78.04 61.05C54.42 42.4 30.81 23.74 7.18001 5.10999C5.80001 3.95999 3.98001 3.74999 2.47001 4.76999C0.690006 6.01999 0.690007 7.83999 1.05001 9.80999C3.29001 23.25 8.96001 36.19 16.83 47.28C25.25 59.17 36.3 68.95 48.86 76.29C40.48 80.49 32.09 84.7 23.7 88.87C22.57 89.43 21.6 90.11 21.19 91.37C20.53 93.36 21.67 95.59 23.69 96.16C25.13 96.45 26.67 96.31 28.14 96.33C40.21 96.32 52.29 96.33 64.36 96.33C68.28 96.31 72.03 96.46 75.93 95.83C88.73 93.88 100.14 85.45 105.75 73.79C108.16 68.62 110.4 63.38 112.73 58.18C113.47 56.61 113.37 54.88 112.11 53.61Z" fill="#8FB436"/>
</svg>
