<svg width="43" height="40" viewBox="0 0 43 40" fill="none" xmlns="http://www.w3.org/2000/svg">
<path d="M6.50497 20.9049C6.50497 20.3249 6.50497 19.7349 6.50497 19.1549C6.52497 19.0549 6.54497 18.9749 6.56497 18.8749C6.72497 17.9549 6.80497 16.9849 7.05497 16.0949C9.32497 7.88493 17.815 3.21493 25.925 5.71493C33.415 8.00493 37.925 15.7549 36.085 23.3849C34.775 28.8649 31.335 32.4849 26.015 34.3149C25.155 34.6149 24.245 34.7549 23.335 34.9549C23.335 30.9749 23.335 27.0849 23.335 23.1449C24.545 23.1449 25.725 23.1449 26.915 23.1449C27.095 21.7349 27.275 20.3649 27.465 18.9549C26.075 18.9549 24.705 18.9549 23.335 18.9549C23.335 17.9149 23.295 16.9049 23.355 15.9149C23.415 14.8249 23.975 14.3249 25.065 14.2849C25.805 14.2649 26.555 14.2649 27.295 14.2449C27.395 14.2449 27.495 14.2249 27.615 14.2249C27.615 13.0149 27.615 11.8449 27.615 10.6749C27.615 10.6149 27.495 10.4749 27.415 10.4749C26.225 10.4149 25.035 10.3349 23.855 10.3549C22.725 10.3749 21.685 10.7549 20.795 11.5049C19.645 12.4849 19.145 13.7749 19.065 15.2449C19.005 16.3549 19.025 17.4749 19.025 18.5849C19.025 18.7049 19.025 18.8049 19.025 18.9649C17.795 18.9649 16.635 18.9649 15.445 18.9649C15.445 20.3749 15.445 21.7449 15.445 23.1549C16.655 23.1549 17.835 23.1549 19.005 23.1549C19.005 27.0449 19.005 30.9049 19.005 34.7549C18.965 34.7549 18.925 34.7749 18.905 34.7549C17.595 34.5349 16.335 34.1349 15.115 33.5449C12.855 32.4549 10.965 30.9249 9.48497 28.9149C8.04497 27.0649 7.12497 24.9649 6.73497 22.6349C6.63497 22.0749 6.57497 21.4949 6.50497 20.9049Z" fill="#87868A"/>
</svg>
