<svg width="43" height="40" viewBox="0 0 43 40" fill="none" xmlns="http://www.w3.org/2000/svg">
<path d="M6.505 20.905C6.505 20.325 6.505 19.735 6.505 19.155C6.525 19.055 6.545 18.975 6.565 18.875C6.725 17.955 6.805 16.985 7.055 16.095C9.325 7.885 17.815 3.215 25.925 5.715C33.415 8.005 37.925 15.755 36.085 23.385C34.775 28.865 31.335 32.485 26.015 34.315C25.155 34.615 24.245 34.755 23.335 34.955C23.335 30.975 23.335 27.085 23.335 23.145C24.545 23.145 25.725 23.145 26.915 23.145C27.095 21.735 27.275 20.365 27.465 18.955C26.075 18.955 24.705 18.955 23.335 18.955C23.335 17.915 23.295 16.905 23.355 15.915C23.415 14.825 23.975 14.325 25.065 14.285C25.805 14.265 26.555 14.265 27.295 14.245C27.395 14.245 27.495 14.225 27.615 14.225C27.615 13.015 27.615 11.845 27.615 10.675C27.615 10.615 27.495 10.475 27.415 10.475C26.225 10.415 25.035 10.335 23.855 10.355C22.725 10.375 21.685 10.755 20.795 11.505C19.645 12.485 19.145 13.775 19.065 15.245C19.005 16.355 19.025 17.475 19.025 18.585C19.025 18.705 19.025 18.805 19.025 18.965C17.795 18.965 16.635 18.965 15.445 18.965C15.445 20.375 15.445 21.745 15.445 23.155C16.655 23.155 17.835 23.155 19.005 23.155C19.005 27.045 19.005 30.905 19.005 34.755C18.965 34.755 18.925 34.775 18.905 34.755C17.595 34.535 16.335 34.135 15.115 33.545C12.855 32.455 10.965 30.925 9.485 28.915C8.045 27.065 7.125 24.965 6.735 22.635C6.635 22.075 6.575 21.495 6.505 20.905Z" fill="#518752"/>
</svg>
