<svg width="43" height="40" viewBox="0 0 43 40" fill="none" xmlns="http://www.w3.org/2000/svg">
<path d="M21.495 12.5648C22.745 12.5648 23.935 12.5648 25.185 12.5648C25.555 12.5648 25.995 12.6248 26.375 12.6948C27.875 13.0048 28.815 14.1348 29.005 15.6348C29.065 15.9448 29.065 16.3248 29.065 16.6348C29.065 18.8848 29.065 21.1948 29.065 23.4448C29.065 24.0048 29.005 24.5748 28.815 25.1348C28.375 26.5048 27.315 27.2548 25.945 27.3248C24.195 27.4548 22.445 27.3848 20.695 27.4548C19.505 27.4548 18.385 27.4548 17.195 27.3948C15.445 27.2648 14.255 26.0848 14.005 24.3348C13.945 24.0248 13.945 23.7148 13.945 23.3948C13.945 21.0848 13.945 18.7648 13.945 16.4648C13.945 15.9048 14.075 15.3448 14.195 14.8348C14.635 13.4648 15.695 12.7748 17.065 12.6448C18.255 12.5848 19.505 12.5848 20.685 12.5148C21.005 12.5048 21.245 12.5648 21.495 12.5648ZM21.495 15.1248C18.745 15.1248 16.625 17.3148 16.625 20.0648C16.625 22.7548 18.815 24.9448 21.565 24.8748C24.255 24.8748 26.375 22.6848 26.375 20.0048C26.375 17.3248 24.185 15.1248 21.495 15.1248ZM26.365 16.1248C26.925 16.1248 27.365 15.6848 27.365 15.1848C27.365 14.6248 26.925 14.1848 26.425 14.1848C25.865 14.1848 25.425 14.6248 25.425 15.1848C25.435 15.6848 25.875 16.1248 26.365 16.1248Z" fill="#87868A"/>
<path d="M18.375 20.0049C18.375 18.2549 19.745 16.8749 21.505 16.8149C23.255 16.8149 24.635 18.1849 24.695 19.9449C24.695 21.6949 23.325 23.0749 21.565 23.1349C19.745 23.1849 18.375 21.7549 18.375 20.0049Z" fill="#87868A"/>
<path d="M6.50498 20.0049C6.50498 11.6949 13.255 5.00488 21.505 5.00488C29.815 5.00488 36.505 11.7549 36.505 20.0049C36.505 28.3149 29.755 35.0049 21.505 35.0049C13.185 34.9949 6.50498 28.2449 6.50498 20.0049ZM12.245 20.0049C12.245 21.1349 12.185 22.2549 12.245 23.4449C12.245 23.8849 12.245 24.3249 12.305 24.7549C12.555 26.5049 13.435 27.9449 15.115 28.6949C15.995 29.0649 16.865 29.2549 17.805 29.2549C20.115 29.2549 22.495 29.2549 24.805 29.2549C25.305 29.2549 25.805 29.1949 26.305 29.1249C28.175 28.8149 29.615 27.8749 30.305 25.9949C30.615 25.2449 30.745 24.4349 30.745 23.6149C30.745 21.3049 30.745 18.9849 30.745 16.6849C30.745 16.2449 30.745 15.8049 30.685 15.3749C30.375 13.5049 29.435 12.0649 27.625 11.3149C26.875 11.0049 26.065 10.8749 25.245 10.8749C22.745 10.8749 20.245 10.8749 17.805 10.8749C16.805 10.8749 15.805 11.0649 14.865 11.5649C13.175 12.5049 12.425 14.0049 12.305 15.8749C12.185 17.1849 12.245 18.6249 12.245 20.0049Z" fill="#87868A"/>
</svg>
