<svg width="43" height="40" viewBox="0 0 43 40" fill="none" xmlns="http://www.w3.org/2000/svg">
<path d="M21.4949 12.565C22.7449 12.565 23.9349 12.565 25.1849 12.565C25.5549 12.565 25.9949 12.625 26.3749 12.695C27.8749 13.005 28.8149 14.135 29.0049 15.635C29.0649 15.945 29.0649 16.325 29.0649 16.635C29.0649 18.885 29.0649 21.195 29.0649 23.445C29.0649 24.005 29.0049 24.575 28.8149 25.135C28.3749 26.505 27.3149 27.255 25.9449 27.325C24.1949 27.455 22.4449 27.385 20.6949 27.455C19.5049 27.455 18.3849 27.455 17.1949 27.395C15.4449 27.265 14.2549 26.085 14.0049 24.335C13.9449 24.025 13.9449 23.715 13.9449 23.395C13.9449 21.085 13.9449 18.765 13.9449 16.465C13.9449 15.905 14.0749 15.345 14.1949 14.835C14.6349 13.465 15.6949 12.775 17.0649 12.645C18.2549 12.585 19.5049 12.585 20.6849 12.515C21.0049 12.505 21.2449 12.565 21.4949 12.565ZM21.4949 15.125C18.7449 15.125 16.6249 17.315 16.6249 20.065C16.6249 22.755 18.8149 24.945 21.5649 24.875C24.2549 24.875 26.3749 22.685 26.3749 20.005C26.3749 17.325 24.1849 15.125 21.4949 15.125ZM26.3649 16.125C26.9249 16.125 27.3649 15.685 27.3649 15.185C27.3649 14.625 26.9249 14.185 26.4249 14.185C25.8649 14.185 25.4249 14.625 25.4249 15.185C25.4349 15.685 25.8749 16.125 26.3649 16.125Z" fill="#518752"/>
<path d="M18.375 20.005C18.375 18.255 19.745 16.875 21.505 16.815C23.255 16.815 24.635 18.185 24.695 19.945C24.695 21.695 23.325 23.075 21.565 23.135C19.745 23.185 18.375 21.755 18.375 20.005Z" fill="#518752"/>
<path d="M6.505 20.005C6.505 11.695 13.255 5.005 21.505 5.005C29.815 5.005 36.505 11.755 36.505 20.005C36.505 28.315 29.755 35.005 21.505 35.005C13.185 34.995 6.505 28.245 6.505 20.005ZM12.245 20.005C12.245 21.135 12.185 22.255 12.245 23.445C12.245 23.885 12.245 24.325 12.305 24.755C12.555 26.505 13.435 27.945 15.115 28.695C15.995 29.065 16.865 29.255 17.805 29.255C20.115 29.255 22.495 29.255 24.805 29.255C25.305 29.255 25.805 29.195 26.305 29.125C28.175 28.815 29.615 27.875 30.305 25.995C30.615 25.245 30.745 24.435 30.745 23.615C30.745 21.305 30.745 18.985 30.745 16.685C30.745 16.245 30.745 15.805 30.685 15.375C30.375 13.505 29.435 12.065 27.625 11.315C26.875 11.005 26.065 10.875 25.245 10.875C22.745 10.875 20.245 10.875 17.805 10.875C16.805 10.875 15.805 11.065 14.865 11.565C13.175 12.505 12.425 14.005 12.305 15.875C12.185 17.185 12.245 18.625 12.245 20.005Z" fill="#518752"/>
</svg>
