<svg width="43" height="40" viewBox="0 0 43 40" fill="none" xmlns="http://www.w3.org/2000/svg">
<path d="M20.565 5.00488C21.185 5.00488 21.815 5.00488 22.435 5.00488C22.495 5.00488 22.565 5.06488 22.685 5.06488C24.995 5.25488 27.185 5.94488 29.185 7.12488C33.065 9.50488 35.435 12.9349 36.245 17.4349C36.375 17.9949 36.375 18.5649 36.495 19.0649C36.495 19.6849 36.495 20.3149 36.495 20.9349C36.495 21.1249 36.435 21.3049 36.435 21.4949C36.125 24.4349 35.065 27.1249 33.125 29.4349C30.745 32.3049 27.755 34.0649 24.125 34.7449C23.565 34.8749 22.995 34.8749 22.435 34.9949C21.815 34.9949 21.185 34.9949 20.565 34.9949C20.195 34.9349 19.815 34.9349 19.435 34.8649C16.685 34.4949 14.185 33.4249 11.995 31.6149C9.18498 29.3049 7.36498 26.2449 6.74498 22.6149C6.61498 22.0549 6.55498 21.4949 6.49498 20.9249C6.49498 20.3049 6.49498 19.6749 6.49498 19.0549C6.49498 18.8649 6.55498 18.6849 6.55498 18.4949C6.92498 15.3049 8.11498 12.4949 10.245 10.1249C12.555 7.50488 15.495 5.87488 18.935 5.25488C19.505 5.12488 19.995 5.06488 20.565 5.00488ZM19.185 27.6849C20.375 27.6849 21.625 27.6849 22.805 27.6849C22.805 27.5549 22.805 27.4349 22.805 27.3149C22.805 25.8749 22.805 24.4449 22.805 23.0049C22.805 22.3849 22.805 21.8149 22.805 21.1949C22.805 20.5749 23.185 20.0649 23.685 19.6949C24.745 18.9449 26.125 19.3849 26.495 20.6349C26.625 21.0049 26.685 21.5149 26.685 21.8849C26.685 23.6949 26.685 25.5049 26.685 27.3849C26.685 27.5149 26.685 27.5749 26.685 27.6949C27.935 27.6949 29.125 27.6949 30.305 27.6949C30.305 27.5649 30.305 27.5049 30.305 27.3849C30.305 25.4449 30.305 23.4449 30.305 21.5149C30.305 21.0749 30.305 20.6349 30.245 20.2049C29.995 18.0849 28.685 16.7049 26.625 16.4549C25.125 16.2649 23.875 16.7049 23.005 18.0149C22.945 18.0749 22.945 18.0749 22.815 18.2049C22.815 17.6449 22.815 17.2049 22.815 16.7049C21.565 16.7049 20.375 16.7049 19.195 16.7049C19.185 20.3749 19.185 24.0049 19.185 27.6849ZM13.505 16.6849C13.505 20.3749 13.505 23.9949 13.505 27.6849C14.755 27.6849 15.945 27.6849 17.125 27.6849C17.125 27.5549 17.125 27.4349 17.125 27.3149C17.125 24.0649 17.125 20.7549 17.125 17.5049C17.125 17.3149 17.125 17.1949 17.125 17.0049C17.125 16.7549 17.065 16.7549 16.815 16.7549C15.875 16.7549 14.875 16.7549 13.945 16.7549C13.815 16.6849 13.685 16.6849 13.505 16.6849ZM13.245 13.3149C13.245 14.4449 14.125 15.1849 15.305 15.1849C16.485 15.1849 17.365 14.3749 17.365 13.3149C17.365 12.1849 16.485 11.3749 15.305 11.4449C14.125 11.3749 13.245 12.1949 13.245 13.3149Z" fill="#87868A"/>
</svg>
