<svg width="43" height="40" viewBox="0 0 43 40" fill="none" xmlns="http://www.w3.org/2000/svg">
<path d="M20.565 5.005C21.185 5.005 21.815 5.005 22.435 5.005C22.495 5.005 22.565 5.065 22.685 5.065C24.995 5.255 27.185 5.945 29.185 7.125C33.065 9.505 35.435 12.935 36.245 17.435C36.375 17.995 36.375 18.565 36.495 19.065C36.495 19.685 36.495 20.315 36.495 20.935C36.495 21.125 36.435 21.305 36.435 21.495C36.125 24.435 35.065 27.125 33.125 29.435C30.745 32.305 27.755 34.065 24.125 34.745C23.565 34.875 22.995 34.875 22.435 34.995C21.815 34.995 21.185 34.995 20.565 34.995C20.195 34.935 19.815 34.935 19.435 34.865C16.685 34.495 14.185 33.425 11.995 31.615C9.185 29.305 7.365 26.245 6.745 22.615C6.615 22.055 6.555 21.495 6.495 20.925C6.495 20.305 6.495 19.675 6.495 19.055C6.495 18.865 6.555 18.685 6.555 18.495C6.925 15.305 8.115 12.495 10.245 10.125C12.555 7.50501 15.495 5.875 18.935 5.255C19.505 5.125 19.995 5.065 20.565 5.005ZM19.185 27.685C20.375 27.685 21.625 27.685 22.805 27.685C22.805 27.555 22.805 27.435 22.805 27.315C22.805 25.875 22.805 24.445 22.805 23.005C22.805 22.385 22.805 21.815 22.805 21.195C22.805 20.575 23.185 20.065 23.685 19.695C24.745 18.945 26.125 19.385 26.495 20.635C26.625 21.005 26.685 21.515 26.685 21.885C26.685 23.695 26.685 25.505 26.685 27.385C26.685 27.515 26.685 27.575 26.685 27.695C27.935 27.695 29.125 27.695 30.305 27.695C30.305 27.565 30.305 27.505 30.305 27.385C30.305 25.445 30.305 23.445 30.305 21.515C30.305 21.075 30.305 20.635 30.245 20.205C29.995 18.085 28.685 16.705 26.625 16.455C25.125 16.265 23.875 16.705 23.005 18.015C22.945 18.075 22.945 18.075 22.815 18.205C22.815 17.645 22.815 17.205 22.815 16.705C21.565 16.705 20.375 16.705 19.195 16.705C19.185 20.375 19.185 24.005 19.185 27.685ZM13.505 16.685C13.505 20.375 13.505 23.995 13.505 27.685C14.755 27.685 15.945 27.685 17.125 27.685C17.125 27.555 17.125 27.435 17.125 27.315C17.125 24.065 17.125 20.755 17.125 17.505C17.125 17.315 17.125 17.195 17.125 17.005C17.125 16.755 17.065 16.755 16.815 16.755C15.875 16.755 14.875 16.755 13.945 16.755C13.815 16.685 13.685 16.685 13.505 16.685ZM13.245 13.315C13.245 14.445 14.125 15.185 15.305 15.185C16.485 15.185 17.365 14.375 17.365 13.315C17.365 12.185 16.485 11.375 15.305 11.445C14.125 11.375 13.245 12.195 13.245 13.315Z" fill="#518752"/>
</svg>
