<svg width="43" height="40" viewBox="0 0 43 40" fill="none" xmlns="http://www.w3.org/2000/svg">
<path d="M20.615 5.0249C21.225 5.0249 21.835 5.0249 22.515 5.0249C23.065 5.0849 23.615 5.1449 24.165 5.2749C31.925 6.6149 37.365 13.8849 36.385 21.7149C35.895 26.0549 33.815 29.5349 30.275 32.1049C27.095 34.4249 23.495 35.3449 19.515 34.8549C16.525 34.4849 13.835 33.2649 11.575 31.2449C8.94498 28.9249 7.35498 26.0549 6.74498 22.6349C6.62498 22.0849 6.55498 21.5349 6.49498 20.9849C6.49498 20.3749 6.49498 19.7649 6.49498 19.0849C6.55498 18.7149 6.55498 18.3549 6.61498 17.9849C7.10498 14.7449 8.45498 11.8749 10.775 9.5549C13.035 7.2949 15.725 5.8249 18.905 5.2749C19.525 5.1449 20.075 5.0849 20.615 5.0249ZM13.845 18.0449C13.845 18.8349 14.095 19.5049 14.575 20.1849C15.065 20.7949 15.675 21.1649 16.475 21.4049V21.4649C16.045 21.4649 15.555 21.4649 15.075 21.4649C15.325 22.1949 15.685 22.7449 16.295 23.1749C16.845 23.6049 17.515 23.8449 18.315 23.9049C16.785 25.0649 15.135 25.4949 13.305 25.3049C13.425 25.4249 13.555 25.4249 13.615 25.4949C14.775 26.1649 15.995 26.5949 17.345 26.7749C19.665 27.0249 21.805 26.6549 23.765 25.3749C26.815 23.3549 28.285 20.4849 28.345 16.8849C28.345 16.6949 28.405 16.5749 28.535 16.4549C28.965 16.0249 29.395 15.5949 29.815 15.1149C29.875 15.0549 29.875 14.9949 29.935 14.9249C29.325 15.1149 28.775 15.2349 28.165 15.4149V15.3549C28.835 14.9249 29.265 14.3149 29.505 13.6449C28.895 13.8949 28.225 14.0749 27.605 14.3149C27.415 14.3749 27.295 14.3149 27.175 14.1949C26.135 13.2749 24.915 13.0349 23.625 13.5249C22.345 14.0149 21.605 14.9849 21.425 16.3349C21.365 16.7049 21.425 17.1249 21.425 17.4949C18.555 17.3049 16.235 16.0949 14.405 13.8849C13.975 14.6749 13.855 15.4749 14.035 16.3949C14.225 17.2549 14.705 17.9249 15.375 18.4749L15.315 18.5349C14.755 18.2849 14.325 18.1649 13.845 18.0449Z" fill="#87868A"/>
</svg>
