<svg width="43" height="40" viewBox="0 0 43 40" fill="none" xmlns="http://www.w3.org/2000/svg">
<path d="M20.615 5.02501C21.225 5.02501 21.835 5.02501 22.515 5.02501C23.065 5.08501 23.615 5.14501 24.165 5.27501C31.925 6.61501 37.365 13.885 36.385 21.715C35.895 26.055 33.815 29.535 30.275 32.105C27.095 34.425 23.495 35.345 19.515 34.855C16.525 34.485 13.835 33.265 11.575 31.245C8.94499 28.925 7.355 26.055 6.745 22.635C6.625 22.085 6.555 21.535 6.495 20.985C6.495 20.375 6.495 19.765 6.495 19.085C6.555 18.715 6.555 18.355 6.615 17.985C7.105 14.745 8.45499 11.875 10.775 9.55501C13.035 7.29501 15.725 5.82501 18.905 5.27501C19.525 5.14501 20.075 5.08501 20.615 5.02501ZM13.845 18.045C13.845 18.835 14.095 19.505 14.575 20.185C15.065 20.795 15.675 21.165 16.475 21.405V21.465C16.045 21.465 15.555 21.465 15.075 21.465C15.325 22.195 15.685 22.745 16.295 23.175C16.845 23.605 17.515 23.845 18.315 23.905C16.785 25.065 15.135 25.495 13.305 25.305C13.425 25.425 13.555 25.425 13.615 25.495C14.775 26.165 15.995 26.595 17.345 26.775C19.665 27.025 21.805 26.655 23.765 25.375C26.815 23.355 28.285 20.485 28.345 16.885C28.345 16.695 28.405 16.575 28.535 16.455C28.965 16.025 29.395 15.595 29.815 15.115C29.875 15.055 29.875 14.995 29.935 14.925C29.325 15.115 28.775 15.235 28.165 15.415V15.355C28.835 14.925 29.265 14.315 29.505 13.645C28.895 13.895 28.225 14.075 27.605 14.315C27.415 14.375 27.295 14.315 27.175 14.195C26.135 13.275 24.915 13.035 23.625 13.525C22.345 14.015 21.605 14.985 21.425 16.335C21.365 16.705 21.425 17.125 21.425 17.495C18.555 17.305 16.235 16.095 14.405 13.885C13.975 14.675 13.855 15.475 14.035 16.395C14.225 17.255 14.705 17.925 15.375 18.475L15.315 18.535C14.755 18.285 14.325 18.165 13.845 18.045Z" fill="#518752"/>
</svg>
